
<svg width="16px" height="22px" viewBox="0 0 16 22" version="1.1" xmlns="http://www.w3.org/2000/svg" xmlns:xlink="http://www.w3.org/1999/xlink">
    <!-- Generator: Sketch 50.2 (55047) - http://www.bohemiancoding.com/sketch -->
    <desc>Created with Sketch.</desc>
    <defs></defs>
    <g id="Page-1" stroke="none" stroke-width="1" fill="none" fill-rule="evenodd" fill-opacity="0.649314991">
        <g id="facebook-placeholder-for-locate-places-on-maps" fill="#E46C76" fill-rule="nonzero">
            <path d="M14.8134014,5.46432019 C14.7352529,5.17142923 14.5765568,4.85934571 14.4591555,4.58610673 C13.0543202,1.20994896 9.98478422,0 7.5062877,0 C4.18837123,0 0.534074246,2.22480742 0.0461948956,6.81065893 L0.0461948956,7.74757309 C0.0461948956,7.78667285 0.0596705336,8.13790719 0.078812065,8.31360093 C0.352306265,10.4991044 2.07683063,12.8218144 3.36477494,15.0073179 C4.75041763,17.3488631 6.18822738,19.6522784 7.61271462,21.9547239 C8.49108121,20.4521903 9.36628306,18.9299026 10.2246404,17.4662645 C10.4585754,17.0367285 10.7301299,16.6074478 10.9643202,16.1974617 C11.120413,15.924478 11.4186125,15.6514942 11.5548492,15.3974988 C12.9404408,12.8606589 15.17071,10.3042181 15.17071,7.78662181 L15.17071,6.75236659 C15.170761,6.47943387 14.8324408,5.52317401 14.8134014,5.46432019 Z M7.56703016,10.1676241 C6.59173086,10.1676241 5.5241949,9.67994896 4.99726682,8.33315081 C4.91876102,8.11876566 4.92509049,7.68912761 4.92509049,7.64977262 L4.92509049,7.04479814 C4.92509049,5.32787935 6.38290951,4.54710905 7.65115081,4.54710905 C9.21248724,4.54710905 10.4200371,5.79625986 10.4200371,7.35759629 C10.4200371,8.91888167 9.12836659,10.1676241 7.56703016,10.1676241 Z" id="Facebook_Places"></path>
        </g>
    </g>
</svg>