
<svg width="76px" height="80px" viewBox="0 0 76 80" version="1.1" xmlns="http://www.w3.org/2000/svg" xmlns:xlink="http://www.w3.org/1999/xlink">
    <!-- Generator: Sketch 50.2 (55047) - http://www.bohemiancoding.com/sketch -->
    <desc>Created with Sketch.</desc>
    <defs>
        <linearGradient x1="50%" y1="50%" x2="100%" y2="51.9976598%" id="linearGradient-1">
            <stop stop-color="#CAFE04" offset="0%"></stop>
            <stop stop-color="#80D603" offset="100%"></stop>
        </linearGradient>
        <circle id="path-2" cx="38" cy="6.02439024" r="6.02439024"></circle>
        <filter x="-33.2%" y="-66.4%" width="232.8%" height="232.8%" filterUnits="objectBoundingBox" id="filter-3">
            <feOffset dx="4" dy="0" in="SourceAlpha" result="shadowOffsetOuter1"></feOffset>
            <feGaussianBlur stdDeviation="2" in="shadowOffsetOuter1" result="shadowBlurOuter1"></feGaussianBlur>
            <feColorMatrix values="0 0 0 0 0   0 0 0 0 0   0 0 0 0 0  0 0 0 0.246037138 0" type="matrix" in="shadowBlurOuter1"></feColorMatrix>
        </filter>
    </defs>
    <g id="Page-1" stroke="none" stroke-width="1" fill="none" fill-rule="evenodd">
        <g id="Group" transform="translate(-15.000000, -11.000000)">
            <g id="med" transform="translate(15.000000, 15.000000)">
                <path d="M38,76 C17.0131795,76 0,58.9868205 0,38 C0,17.0131795 17.0131795,0 38,0 C58.9868205,0 76,17.0131795 76,38 C76,58.9868205 58.9868205,76 38,76 Z M38.2317073,64.4146341 C52.6921385,64.4146341 64.4146341,52.6921385 64.4146341,38.2317073 C64.4146341,23.7712761 52.6921385,12.0487805 38.2317073,12.0487805 C23.7712761,12.0487805 12.0487805,23.7712761 12.0487805,38.2317073 C12.0487805,52.6921385 23.7712761,64.4146341 38.2317073,64.4146341 Z" id="Combined-Shape" fill="url(#linearGradient-1)" opacity="0.961941964"></path>
                <g id="Oval-6">
                    <use fill="black" fill-opacity="1" filter="url(#filter-3)" xlink:href="#path-2"></use>
                    <use fill="#CAFE04" fill-rule="evenodd" xlink:href="#path-2"></use>
                </g>
            </g>
        </g>
    </g>
</svg>