
<svg width="22px" height="23px" viewBox="0 0 22 23" version="1.1" xmlns="http://www.w3.org/2000/svg" xmlns:xlink="http://www.w3.org/1999/xlink">
    <!-- Generator: Sketch 50.2 (55047) - http://www.bohemiancoding.com/sketch -->
    <desc>Created with Sketch.</desc>
    <defs></defs>
    <g id="Page-1" stroke="none" stroke-width="1" fill="none" fill-rule="evenodd">
        <g id="icon" fill="#FBC485" fill-rule="nonzero">
            <path d="M21.16048,12.54352 C21.09272,12.87352 20.86744,13.18152 20.45296,13.08208 C18.96136,12.7292 16.62408,12.6236 15.23984,12.95888 C14.7312,13.08208 14.4936,12.86032 14.30264,12.25224 C13.82656,10.74128 13.07504,8.91968 13.23696,6.58592 C13.59864,1.35784 15.75728,-0.08976 17.38352,0.0044 C19.00976,0.09856 23.18888,2.68312 21.16048,12.54352 Z M14.47072,15.66312 C14.47072,15.66312 14.17944,16.5704 14.01576,18.04792 C13.74472,20.49168 14.27008,22.18744 16.65664,22.53064 C18.67008,22.82104 19.9628,21.30744 20.23208,18.86368 C20.39488,17.38704 20.40896,16.44456 20.40896,16.44456 L14.47072,15.66312 Z" id="Shape"></path>
            <path d="M5.1832,0.0044 C6.80944,-0.08888 8.96808,1.35784 9.32976,6.58592 C9.49168,8.91968 8.74016,10.74216 8.26408,12.25224 C8.07224,12.85944 7.83552,13.0812 7.32688,12.95888 C5.94264,12.6236 3.60536,12.72832 2.11376,13.08208 C1.69928,13.18064 1.474,12.87352 1.40624,12.54352 C-0.62216,2.68312 3.55784,0.09856 5.1832,0.0044 Z M2.15688,16.44456 C2.15688,16.44456 2.17184,17.38704 2.33376,18.86368 C2.60392,21.30744 3.89576,22.82104 5.9092,22.53064 C8.29576,22.18744 8.82112,20.49256 8.55008,18.04792 C8.3864,16.5704 8.09512,15.66312 8.09512,15.66312 L2.15688,16.44456 Z" id="Shape"></path>
        </g>
    </g>
</svg>